
<svg id="Layer_1" xmlns="http://www.w3.org/2000/svg" version="1.1" viewBox="0 0 196.79 196.79">
  <defs>
    <style>
      .st0 {
        fill: #f90;
        fill-rule: evenodd;
      }

      .st1 {
        fill: rgb(33, 33, 33);
      }
    </style>
  </defs>
  <path class="st0" d="M135.94,148c-10.9,8.04-26.75,12.35-40.39,12.35-19.12,0-36.32-7.07-49.34-18.83-1.02-.92-.11-2.18,1.13-1.47,14.04,8.18,31.43,13.1,49.36,13.1,12.1,0,25.41-2.5,37.65-7.71,1.84-.79,3.4,1.2,1.58,2.56M140.49,142.79c-1.39-1.79-9.21-.85-12.74-.43-1.07.13-1.24-.81-.26-1.47,6.24-4.4,16.48-3.12,17.69-1.65s-.32,11.75-6.18,16.65c-.9.75-1.77.36-1.35-.64,1.32-3.29,4.27-10.66,2.88-12.44"/>
  <path class="st1" d="M116.63,36.44h25.79v93.23h-24.8l-43.78-53.56-.28.14s1.13,12.47,1.13,18.99v34.43h-25.79V36.44h25.22l43.22,52.71h.28s-.99-12.47-.99-17.85v-34.86Z"/>
</svg>