
<svg version="1.0" xmlns="http://www.w3.org/2000/svg" width="451px" height="130px" viewBox="0 0 451 130px" preserveAspectRatio="xMidYMid meet">
 <g fill="#fffefe">
  <path d="M184.32 81.79 c-6 -0.93 -10.30 -3.06 -12.40 -6.12 -1.22 -1.77 -1.65 -3.11 -1.65 -5.23 -0.02 -3.11 1.58 -5.73 4.35 -7.14 l0.98 -0.50 -1.07 -1.19 c-1.31 -1.48 -1.82 -2.89 -1.82 -5.21 0 -1.50 0.12 -2.05 0.69 -3.25 0.62 -1.31 2.25 -3.08 3.82 -4.18 0.53 -0.36 0.53 -0.36 -0.67 -1.29 -1.53 -1.15 -3.18 -3.32 -3.87 -5.11 -0.81 -2.03 -0.93 -6.14 -0.24 -8.36 1.39 -4.59 5.66 -8.24 11.44 -9.77 2.01 -0.53 2.82 -0.62 6.14 -0.62 3.11 0 4.25 0.10 6.09 0.50 2.51 0.57 5.18 1.77 6.93 3.03 l1.15 0.84 0.67 -1.34 c0.76 -1.50 1.86 -2.58 3.42 -3.30 0.93 -0.43 1.55 -0.50 4.01 -0.50 1.62 0 3.01 0.10 3.15 0.24 0.24 0.26 -0.69 9.53 -1 9.84 -0.10 0.07 -0.84 0.12 -1.67 0.10 -1.74 -0.05 -3.58 0.45 -4.40 1.22 -0.55 0.50 -0.57 0.64 -0.43 2.34 0.33 3.77 -1.10 7.45 -3.92 10.08 -1.91 1.82 -3.32 2.60 -6.02 3.37 -2.96 0.88 -6.23 1.19 -9.94 1.03 -3.03 -0.17 -3.15 -0.14 -3.63 0.36 -1.10 1.17 -0.26 3.15 1.58 3.77 0.64 0.21 3.54 0.36 9.63 0.48 8.53 0.19 8.77 0.19 10.63 0.81 2.36 0.76 3.73 1.62 5.16 3.20 1.55 1.74 2.17 3.46 2.32 6.43 0.12 2.77 -0.17 4.44 -1.12 6.45 -2.27 4.78 -7.52 7.91 -15.14 9.03 -3.11 0.48 -10.18 0.48 -13.16 0z m8.98 -8.46 c2.29 -0.33 4.16 -1.10 5.23 -2.17 1.67 -1.67 1.41 -3.63 -0.57 -4.54 -0.88 -0.38 -1.62 -0.45 -6.40 -0.45 -5.18 0 -5.42 0.02 -6.07 0.53 -0.36 0.29 -0.86 0.96 -1.10 1.48 -0.38 0.86 -0.38 1.03 -0.07 1.79 0.72 1.70 2.15 2.70 4.73 3.25 1.79 0.41 2.25 0.41 4.25 0.12z m-0.72 -31.44 c1.43 -1 1.98 -2.22 1.98 -4.28 -0.05 -4.83 -4.61 -6.90 -7.81 -3.54 -0.88 0.93 -1.39 2.22 -1.39 3.63 0 1.50 0.31 2.32 1.27 3.34 1.74 1.84 4.08 2.15 5.95 0.84z"/>
  <path d="M81.17 64.50 c-4.51 -0.81 -7.98 -3.20 -9.77 -6.74 -1.34 -2.63 -1.43 -3.58 -1.58 -13.26 l-0.12 -8.91 -2.84 0 -2.84 0 0 -5.37 0 -5.37 2.96 0 2.94 0 1.50 -2.08 c0.81 -1.17 2.41 -3.46 3.54 -5.16 l2.05 -3.03 3.15 0 c3.61 0 3.51 -0.05 3.44 2.10 -0.02 0.62 -0.02 2.70 -0.02 4.63 l0.02 3.54 5.45 0.05 5.42 0.07 0 5.26 0 5.26 -5.49 0.12 -5.49 0.12 0 7.17 c0 5.11 0.10 7.41 0.31 8.03 0.84 2.41 3.75 3.42 7.29 2.48 1.84 -0.48 2.08 -0.45 2.08 0.19 0 0.29 0.21 2.44 0.50 4.78 0.38 3.06 0.45 4.32 0.26 4.51 -0.14 0.14 -1.48 0.57 -2.96 0.96 -2.94 0.76 -7.55 1.10 -9.79 0.67z"/>
  <path d="M365.94 64.50 c-5.02 -0.72 -9.39 -3.73 -11.51 -7.95 -1.70 -3.37 -1.67 -3.30 -1.77 -18.23 l-0.10 -13.42 0.91 -0.10 c0.50 -0.07 3.54 -0.12 6.76 -0.10 l5.85 0.02 0.12 11.94 c0.12 11.54 0.14 11.97 0.62 13.02 1 2.13 2.77 3.25 5.45 3.51 3.73 0.33 7.69 -2.15 8.29 -5.23 0.10 -0.57 0.19 -5.97 0.21 -12.04 l0 -11.01 1.27 -0.17 c0.67 -0.07 3.73 -0.14 6.78 -0.14 l5.54 0 0.07 13.09 c0.07 11.99 0.10 13.14 0.50 13.85 0.50 0.91 1.89 1.89 2.99 2.10 0.43 0.10 0.84 0.24 0.88 0.36 0.07 0.10 -0.69 2.41 -1.72 5.11 -2.13 5.71 -1.91 5.52 -5.04 5.28 -4.44 -0.33 -8.07 -2.48 -9.65 -5.76 l-0.53 -1.07 -0.36 0.55 c-2.72 3.99 -6.78 6.16 -12.09 6.47 -1.05 0.07 -2.63 0.02 -3.49 -0.10z"/>
  <path d="M226.89 64.11 c-2.08 -0.50 -4.66 -1.91 -6.21 -3.39 -4.49 -4.28 -4.66 -11.92 -0.36 -15.98 3.15 -2.99 7.86 -4.28 16.58 -4.54 3.18 -0.10 4.85 -0.24 4.92 -0.41 0.19 -0.53 -0.29 -3.03 -0.72 -3.77 -0.26 -0.45 -0.96 -1.03 -1.62 -1.39 -1.15 -0.57 -1.34 -0.60 -5.37 -0.57 -4.56 0 -6.83 0.36 -10.87 1.72 -1.12 0.38 -2.10 0.62 -2.15 0.55 -0.26 -0.43 -2.01 -9.46 -1.86 -9.60 0.31 -0.29 4.75 -1.55 7.36 -2.08 5.30 -1.10 12.88 -1.29 16.72 -0.45 6.21 1.39 9.84 4.40 11.47 9.48 0.36 1.10 0.45 2.63 0.60 9.20 0.10 4.78 0.24 8.12 0.41 8.48 0.50 1.15 2.39 2.39 3.65 2.39 0.72 0 0.62 0.53 -0.98 4.68 -0.79 2.10 -1.55 4.13 -1.70 4.51 -0.41 1.10 -0.60 1.24 -1.84 1.41 -3.89 0.53 -9.05 -1.84 -11.04 -5.02 l-0.48 -0.81 -1.72 1.74 c-2.94 2.99 -6.21 4.25 -10.89 4.20 -1.39 0 -3.15 -0.17 -3.89 -0.36z m10.68 -10.15 c0.86 -0.31 1.82 -0.93 2.53 -1.62 1.12 -1.10 1.17 -1.17 1.17 -2.48 0 -1.03 -0.10 -1.41 -0.36 -1.53 -0.45 -0.17 -5.28 0.33 -6.76 0.69 -1.46 0.36 -2.99 1.79 -2.99 2.77 0 0.93 0.76 1.84 2.10 2.48 1.12 0.53 2.27 0.45 4.30 -0.31z"/>
  <path d="M425.92 64.11 c-2.46 -0.53 -5.14 -1.96 -7.09 -3.77 -0.96 -0.91 -1.74 -1.50 -1.74 -1.36 0 0.14 -0.48 1.29 -1.05 2.53 l-1.07 2.27 -5.14 0 -5.16 0 0 -29.86 0 -29.86 6.88 0.05 6.86 0.07 0.07 12.40 0.05 12.40 1.39 -1.31 c2.56 -2.44 5.61 -3.70 9.60 -3.94 8.07 -0.50 14.50 3.37 17.39 10.44 1.43 3.56 1.60 4.44 1.58 9.67 0 5.54 -0.31 7.05 -2.10 10.75 -3.18 6.47 -8.89 9.94 -16.27 9.89 -1.43 0 -3.32 -0.17 -4.18 -0.36z m3.20 -11.51 c1.65 -0.57 3.32 -2.15 4.18 -3.94 2.63 -5.37 0.45 -11.75 -4.49 -13.21 -2.89 -0.86 -6.43 0.10 -8.48 2.29 -0.96 1.03 -1.07 1.27 -1.22 2.75 -0.26 2.32 0.07 8.41 0.48 9.22 0.48 0.88 1.67 1.86 3.15 2.53 2.34 1.07 4.06 1.17 6.38 0.36z"/>
  <path d="M5.45 61.10 c-0.07 -1.48 -0.10 -13.16 -0.07 -25.97 0.07 -19.04 0.14 -23.29 0.41 -23.46 0.38 -0.26 13.81 -0.29 14.19 -0.02 0.17 0.10 0.91 0.93 1.67 1.89 0.79 0.93 4.63 5.57 8.55 10.27 3.94 4.71 8.62 10.30 10.39 12.45 l3.25 3.89 0.07 -14.24 0.05 -14.21 7.29 0 7.29 0 0 26.04 0 26.04 -7 0 -7 0 -0.53 -0.72 c-0.72 -0.96 -4.71 -5.80 -13.42 -16.34 -4.01 -4.85 -7.98 -9.70 -8.84 -10.75 l-1.55 -1.93 -0.07 14.88 -0.05 14.86 -7.26 0 -7.24 0 -0.12 -2.68z"/>
  <path d="M100.30 62.54 c-0.10 -4.35 -0.12 -48.56 -0.02 -52.94 l0.12 -5.30 6.83 0.05 6.83 0.07 0.12 12.49 0.12 12.47 1.07 -1.10 c2.99 -3.08 7.05 -4.63 12.18 -4.63 6.55 0 11.37 2.58 13.62 7.26 0.50 1.07 1.05 2.48 1.22 3.13 0.21 0.86 0.31 5.14 0.38 15.48 l0.10 14.26 -6.93 0 -6.93 0 -0.07 -12.59 -0.07 -12.61 -0.55 -0.91 c-0.79 -1.27 -1.84 -1.98 -3.58 -2.46 -1.29 -0.36 -1.79 -0.38 -3.25 -0.17 -2.22 0.31 -4.28 1.24 -5.59 2.53 -1.82 1.77 -1.72 0.93 -1.72 14.26 l0 11.94 -6.93 0 -6.93 0 -0.02 -1.24z"/>
  <path d="M150.30 44.26 l0.07 -19.54 6.81 0 6.81 0 0.07 19.54 0.05 19.52 -6.93 0 -6.93 0 0.05 -19.52z"/>
  <path d="M294.18 63.49 c-0.07 -0.17 -0.10 -12.02 -0.07 -26.35 l0.07 -26.04 7.36 -0.07 7.33 -0.05 0 10.03 0 10.03 10.15 0 10.15 0 0.05 -9.99 0.07 -9.96 7.48 -0.07 7.45 -0.05 0 26.40 0 26.40 -7.45 -0.05 -7.48 -0.07 -0.07 -10.08 -0.05 -10.10 -10.15 0 -10.15 0 0 10.15 0 10.15 -7.29 0 c-5.61 0 -7.33 -0.07 -7.41 -0.29z"/>
  <path d="M264.96 45.20 c-0.21 -0.17 -0.29 -1.24 -0.24 -4.61 l0.07 -4.40 10.34 -0.07 10.32 -0.05 0 4.54 0 4.54 -9.77 0 c-5.37 0 -9.91 0.05 -10.10 0.12 -0.17 0.07 -0.45 0.02 -0.62 -0.07z"/>
  <path d="M154.46 18.49 c-2.46 -0.76 -4.20 -2.39 -4.83 -4.54 -0.91 -3.11 0.72 -6.33 3.85 -7.64 3.27 -1.36 7.67 -0.64 9.87 1.60 2.51 2.58 2.27 6.81 -0.50 9.17 -1.86 1.60 -5.66 2.25 -8.38 1.41z"/>
 </g>
 <g fill="#d18117">
  <path d="M168.29 124.79 c-34.02 -1.84 -64.86 -12.04 -91.49 -30.29 -5.61 -3.85 -11.94 -8.84 -15 -11.87 -1.43 -1.43 -1.60 -1.70 -1.60 -2.53 0 -0.69 0.17 -1.10 0.60 -1.50 0.91 -0.86 1.91 -0.74 4.11 0.43 32.20 17.29 66.67 26.97 102.43 28.74 7.02 0.33 21.74 0.14 28.28 -0.38 23.70 -1.89 46.46 -7.14 70.01 -16.17 4.08 -1.58 6.45 -1.29 7.17 0.88 0.48 1.46 0.10 2.46 -1.53 4.06 -2.77 2.72 -11.04 7.84 -18.66 11.56 -18.25 8.93 -38.36 14.36 -61.22 16.53 -4.99 0.45 -18.54 0.79 -23.10 0.55z"/>
  <path d="M274.92 115.23 c-0.57 -0.69 -0.31 -2.03 1.10 -5.71 3.44 -9.03 4.04 -10.68 4.78 -13.62 1.31 -5.18 1.55 -8.72 0.69 -10.42 -0.53 -1.03 -1.67 -1.84 -3.13 -2.17 -2.20 -0.50 -16.22 -0.41 -20.38 0.14 -1.77 0.24 -4.11 0.48 -5.18 0.55 -1.86 0.12 -1.98 0.10 -2.56 -0.48 -0.76 -0.76 -0.81 -1.77 -0.14 -2.63 1.65 -2.08 8.84 -5.14 15.60 -6.64 8.36 -1.84 20.42 -1.39 24.99 0.96 2.65 1.39 3.54 4.18 2.91 9.24 -1.34 10.80 -6.55 21.83 -13.35 28.33 -2.82 2.68 -4.49 3.44 -5.33 2.44z"/>
  <path d="M58.29 14.33 l0 -2.36 -3.39 -0.10 -3.42 -0.07 3.54 -0.05 3.51 -0.05 0 2.51 c0 1.39 -0.05 2.51 -0.12 2.51 -0.07 0 -0.12 -1.07 -0.12 -2.39z"/>
 </g>
</svg>